/* XPM */
static char *sun_desktop[] = {
/* columns rows colors chars-per-pixel */
"60 60 256 2 ",
"   c #FC7315",
".  c #FE761C",
"X  c #FD791D",
"o  c #FE7721",
"O  c #FD7B24",
"+  c #FE7D2B",
"@  c #FE7C30",
"#  c #F9801E",
"$  c #FB8126",
"%  c #FE812C",
"&  c #FB8B2C",
"*  c #FA942C",
"=  c #FB9C2D",
"-  c #FD8431",
";  c #F68A37",
":  c #FA8A34",
">  c #F98D3A",
",  c #FB9C31",
"<  c #FA923C",
"1  c #F5993F",
"2  c #FAA42D",
"3  c #FAAE2E",
"4  c #FAB52E",
"5  c #FBBC2D",
"6  c #FBA631",
"7  c #FBAD30",
"8  c #FBB431",
"9  c #FBBF30",
"0  c #FBC32E",
"q  c #FCCC2D",
"w  c #FED427",
"e  c #FCD927",
"r  c #FED42A",
"t  c #FDD92B",
"y  c #FCC331",
"u  c #FCCD30",
"i  c #FED730",
"p  c #F79642",
"a  c #F99542",
"s  c #F69B45",
"d  c #FA9749",
"f  c #F69D49",
"g  c #FA9A4D",
"h  c #FA9D51",
"j  c #F7A14D",
"k  c #F6A352",
"l  c #F8A154",
"z  c #F7A55C",
"x  c #F9A359",
"c  c #F7AA5F",
"v  c #F7A765",
"b  c #F7A961",
"n  c #F9AD66",
"m  c #F6AD6B",
"M  c #F9AD6A",
"N  c #F4B36E",
"B  c #FAB26B",
"V  c #F5AF73",
"C  c #F6B372",
"Z  c #FAB473",
"A  c #FEB877",
"S  c #F6BC7C",
"D  c #F9BA7B",
"F  c #F8C07E",
"G  c #F5BC81",
"H  c #F6BF8B",
"J  c #F6C086",
"K  c #FAC386",
"L  c #F6C28A",
"P  c #F8C088",
"I  c #F4CC8C",
"U  c #F4C692",
"Y  c #F7C894",
"T  c #FAC996",
"R  c #F4CC9C",
"E  c #F9CE9C",
"W  c #F3D196",
"Q  c #FAD19C",
"!  c #F4CFA2",
"~  c #EFDAAC",
"^  c #F5D1A6",
"/  c #F9D3A5",
"(  c #F6DDA3",
")  c #F8D8A4",
"_  c #F5D3AB",
"`  c #F4DBAD",
"'  c #FAD9AF",
"]  c #F3D6B2",
"[  c #F3DBB4",
"{  c #FBDBB1",
"}  c #F3DABD",
"|  c #F8DDBB",
" . c #F7E2BE",
".. c #FAE1BE",
"X. c #F2DDC1",
"o. c #EFE4C4",
"O. c #EEE3CB",
"+. c #F6E1C6",
"@. c #FAE4C5",
"#. c #F4E9C5",
"$. c #F3E4CC",
"%. c #F9E5CA",
"&. c #F3EACD",
"*. c #FAE9CC",
"=. c #FAF2CA",
"-. c #EFE6D8",
";. c #F2E6D2",
":. c #F8E7D0",
">. c #F2EBD6",
",. c #FAEDD5",
"<. c #F4E6D9",
"1. c #F2ECDD",
"2. c #F8EED9",
"3. c #FAF1D2",
"4. c #F6F0DA",
"5. c #FBF3DD",
"6. c #EEEEE0",
"7. c #EEEEEE",
"8. c #F2ECE2",
"9. c #F1EEED",
"0. c #EFF2EC",
"q. c #FBF4E3",
"w. c #FAF9E6",
"e. c #F3F2ED",
"r. c #F9F6EA",
"t. c #F6F8EE",
"y. c #FBFAEC",
"u. c #EEEEF1",
"i. c #F1EFF6",
"p. c #EFF2F4",
"a. c #EEF4FA",
"s. c #EFFAFC",
"d. c #F3F3F3",
"f. c #F9F7F5",
"g. c #F3F9F3",
"h. c #FBFAF5",
"j. c #F2F5FA",
"k. c #F9F7FA",
"l. c #F4FBFE",
"z. c #FDFDFD",
"x. c gray100",
"c. c gray100",
"v. c gray100",
"b. c gray100",
"n. c gray100",
"m. c gray100",
"M. c gray100",
"N. c gray100",
"B. c gray100",
"V. c gray100",
"C. c gray100",
"Z. c gray100",
"A. c gray100",
"S. c gray100",
"D. c gray100",
"F. c gray100",
"G. c gray100",
"H. c gray100",
"J. c gray100",
"K. c gray100",
"L. c gray100",
"P. c gray100",
"I. c gray100",
"U. c gray100",
"Y. c gray100",
"T. c gray100",
"R. c gray100",
"E. c gray100",
"W. c gray100",
"Q. c gray100",
"!. c gray100",
"~. c gray100",
"^. c gray100",
"/. c gray100",
"(. c gray100",
"). c gray100",
"_. c gray100",
"`. c gray100",
"'. c gray100",
"]. c gray100",
"[. c gray100",
"{. c gray100",
"}. c gray100",
"|. c gray100",
" X c gray100",
".X c gray100",
"XX c gray100",
"oX c gray100",
"OX c gray100",
"+X c gray100",
"@X c gray100",
"#X c gray100",
"$X c gray100",
"%X c gray100",
"&X c gray100",
"*X c gray100",
"=X c gray100",
"-X c gray100",
";X c gray100",
":X c gray100",
">X c gray100",
",X c gray100",
"<X c gray100",
"1X c gray100",
"2X c gray100",
"3X c gray100",
"4X c gray100",
"5X c gray100",
"6X c gray100",
"7X c gray100",
"8X c gray100",
"9X c gray100",
"0X c gray100",
"qX c gray100",
"wX c gray100",
"eX c gray100",
"rX c gray100",
"tX c gray100",
"yX c gray100",
"uX c gray100",
"iX c gray100",
"pX c gray100",
"aX c gray100",
"sX c gray100",
"dX c gray100",
"fX c gray100",
"gX c gray100",
"hX c gray100",
"jX c gray100",
"kX c gray100",
"lX c gray100",
"zX c gray100",
"xX c gray100",
"cX c gray100",
"vX c gray100",
"bX c gray100",
"nX c gray100",
"mX c gray100",
"MX c gray100",
"NX c gray100",
"BX c gray100",
"VX c gray100",
"CX c gray100",
"ZX c gray100",
"AX c gray100",
"SX c gray100",
"DX c gray100",
"FX c gray100",
"GX c gray100",
"HX c gray100",
"JX c gray100",
"KX c gray100",
"LX c gray100",
"PX c gray100",
"IX c gray100",
"UX c gray100",
/* pixels */
"z.z.z.z.z.z.z.z.z.z.z.z.z.z.z.z.z.z.z.z.z.;.#.z.z.z.z.z.z.z.z.z.z.z.z.z.z.o.:.z.z.z.z.z.z.z.z.z.z.z.z.z.z.z.z.z.z.z.z.z.",
"z.z.z.z.z.z.z.z.z.z.z.z.z.z.z.z.z.z.z.z.z.z.S z.z.z.z.z.z.z.z.z.z.z.z.z.z.S 2.z.z.z.z.z.z.z.z.z.z.z.z.z.z.z.z.z.z.z.z.z.",
"z.z.z.z.z.z.z.z.z.z.z.z.z.z.z.z.z.z.z.z.z.z.p +.z.z.z.z.z.z.z.z.z.z.z.z.| < z.z.z.z.z.z.z.z.z.z.z.z.z.z.z.z.z.z.z.z.z.z.",
"z.z.z.z.z.z.z.z.z.z.z.z.z.z.z.z.z.z.z.z.z.z.& m z.z.z.z.z.z.z.z.z.z.z.z.1 < z.z.z.z.z.z.z.z.z.z.z.z.z.z.z.z.z.z.z.z.z.z.",
"z.z.z.z.z.z.z.z.z.z.z.z.z.z.z.z.z.z.z.z.z.z.: O @.z.z.z.z.z.z.z.z.z.z.N   a z.z.z.z.z.z.z.z.z.z.z.z.z.z.z.z.z.z.z.z.z.z.",
"z.z.z.z.z.z.z.z.z.z.z.z.z.z.z.z.z.z.z.z.z.$.% O g z.z.z.z.z.z.z.z.z.J O + ; 2.z.z.z.z.z.z.z.z.z.z.z.z.z.z.z.z.z.z.z.z.z.",
"z.z.z.z.z.z.z.z.z.z.z.z.z.z.z.z.z.z.z.z.z._ O - o v z.z.z.z.z.z.z.S X % @ O ' z.z.z.z.z.z.z.z.z.z.z.z.z.z.z.z.z.z.z.z.z.",
"z.z.z.z.z.z.z.z.z.z.z.z.z.z.z.z.z.z.z.z.z.G X % - X k @.z.z.z.] h X % % % o B z.z.z.z.z.z.z.z.z.z.z.z.z.z.z.z.z.z.z.z.z.",
"z.z.z.z.z.z.z.z.( z.z.z.z.z.z.z.z.z.z.z.z.f O % + % o $ g l p O O + + + % % $ [ z.z.z.z.z.z.z.z.z.z.z.~ z.z.z.z.z.z.z.z.",
"z.z.z.z.z.z.z.z.2.k X.z.z.z.z.z.z.z.z.z.{ o + + + % + + O O O - % + % + + % O : $.z.z.z.z.z.z.z.z.z.C R z.z.z.z.z.z.z.z.",
"z.z.z.z.z.z.z.z.z.Y X D z.z.z.z.z.z.z.z.1 O % % % O + + + + + + + + + + % + % + : E z.z.z.z.z.z./ < s z.z.z.z.z.z.z.z.z.",
"z.z.z.z.z.z.z.z.z.z.p   < H $.z.z.z.@.a X - + + + & * 2 6 7 2 2 = & $ + + + % % O X ; b Z B h : X . _ z.z.z.z.z.z.z.z.z.",
"z.z.z.z.z.z.z.z.z.z.L o + X - d l g $ O @ + & 6 0 u w t t t t t r r y 8 * + + $ % % + o . X O + + : z.z.z.z.z.z.z.z.z.z.",
"z.z.z.z.z.z.z.z.z.z.:.$ % % + O O O + + * 4 q t w w r r r r r r r r r t i 0 * + + % % % % % + - o l z.z.z.z.z.z.z.z.z.z.",
"z.z.z.z.z.z.z.z.z.z.z.< O % + + - @ - 3 r t r r r r r r r r r r r r q r r r i 4 & + % + + % + % X M z.z.z.z.z.z.z.z.z.z.",
"z.z.z.z.z.z.z.z.z.z.z.g O % % % + & 0 t r r r w r r r r r r r r r r e e r r w t q * + + % % + % o C z.z.z.z.z.z.z.z.z.z.",
"z.z.z.z.z.z.z.z.z.z.z.g O + + + * u e r r r r r r r r r r r r r r r r r r r r r t i 2 + + % + % X M z.z.z.z.z.z.z.z.z.z.",
"z.z.z.z.z.z.z.z.z.z.1.; + + + * r w r r w r r r r r r r r r r r r r r r r r r r r w i = + % % % O p z.z.z.z.z.z.z.z.z.z.",
"z.z.z.z.z.z.z.z.z.z.U X $ + & q w r r r r r r r r r r r r r r r r r r r r r r r w w r r * + % + % O ` z.z.z.z.z.z.z.z.z.",
"z.z.z.z.z.z.z.z.z.:.; + % + 5 t q r r r r r r r r r r r r r r r r r r r r r r r r t q r u $ + % % O d z.z.z.z.z.z.z.z.z.",
"z.z.z.z.z.z.z.z.Q : + % + , t r t w r r r r r r r r r r r r r r r r r r r r r r r r r r t 4 + + + % X b z.z.z.z.z.z.z.z.",
"&.O.:.,.*.! C p X O % + - q r r r w r r r r r r r r r r r r r r r r r r r r r r r r r r r i * + % % % o j %.z.z.z.z.z.z.",
"5. .F < . . o O + % % + 6 t r r r r r r r r r r r r w r r r r r r r r w r r r r r r r r r r 5 + % % % % O + x T { ! ` #.",
"z.z.z.1.U > + % % + $ $ q w r r r r r r r r r r r r t r r r r r r r r t r r r r r r r r r r u & + + % + % + +   # F -.z.",
"z.z.z.z.z.>.1 O % + + * t w r r r r r r r r r r r r r r r r r r r r w r r r r r r r r r r r t 2 + + + % + - o p +.z.z.z.",
"z.z.z.z.z.z.>.< + + + 6 t r r r r r r r r r r r r r r r r r r r r r r r r r r r r r r r r w t 9 + % % + % O < >.z.z.z.z.",
"z.z.z.z.z.z.z.R X - + 9 t w r r r r r r r r r r r r r r r r r w r r r r r r r r r r r r r r w u & + + % O : 3.z.z.z.z.z.",
"z.z.z.z.z.z.z.q.& + % q w w r r r w r r r r r r r r r r r r r r r r r r r r r r r r r r r r w i & + + % X L z.z.z.z.z.z.",
"z.z.z.z.z.z.z.z.a O & u t r r r r r r r w r r r r r r r r r r r r r r r r r r r r r r r r r r r * + % + > 1.z.z.z.z.z.z.",
"z.z.z.z.z.z.z.q.: + & r w r r r r r r r r r r t r r r r r r r r r r r r r r r r r r r r r r r r , + % o z z.z.z.z.z.z.z.",
"z.z.z.z.z.z.z._ O + & i w r r r r r r r r r r r r r r r r r r r r r r r r r r r r r r r r r r t , + % X D z.z.z.z.z.z.z.",
"z.z.z.z.z.z.z.h O + & r r r r r r r r r r r r r r r r r r r r r r r r r r r r r r r w r r r r w = + - X Z z.z.z.z.z.z.z.",
"z.z.z.z.z.z.L o % + - q t r r r r r r r r r r r r r r r r r r r r r r r r r r r r r r r r w r r * + % O g z.z.z.z.z.z.z.",
"z.z.z.z.z.` $ % % % + q t r r r r r r r r e r r r r r r r r w r r r r r r r r r r r r t r r r i & + % + O _ z.z.z.z.z.z.",
"z.z.z.z._ $ + % + % + 4 t r r r r r r r r r r r r r r r r r r r r r r r r r r r r r r r r r r q + + + % o a 1.z.z.z.z.z.",
"z.z.z.U $ + % + % % O , t r w r r r r r r r w w r w r r r r r r r r r r r r r r r r r r r r t 4 + % % % % o f 4.z.z.z.z.",
"z.;.z   X O % % % + + - r r r r r r r r r r r r r r r r r r r r r r r r r r r r r r r r r r r = + + + + + % + < ! z.z.z.",
"[ N n A M a $ o + % $ + 4 t r r r r r r r r r r r r r r r r r r r r r r r r w r r r r r r r q $ + % % % % + X   X j ) 5.",
"4.z.z.z.z.z.@.C O $ % + * i r r r r r r r r r r r r r r r r r r r r r r r r r r r r r r r i 6 + % % % + o : b Q  .%.O.&.",
"z.z.z.z.z.z.z.z.^ & + $ + 5 r r r r r r r r r r r r r r r r r r r r r r r r r r r r r r r q % + % % o - G ;.z.z.z.z.z.z.",
"z.z.z.z.z.z.z.z.z.^ X - O & r w r r r r r r r r r w r r r r r r r r r r r r r r r w r r r = + + % o k ,.z.z.z.z.z.z.z.z.",
"z.z.z.z.z.z.z.z.z.z.b o - + 2 t r r r r r r r r r w r r r r r r r r r r r r r r r r r t 4 + + % O b z.z.z.z.z.z.z.z.z.z.",
"z.z.z.z.z.z.z.z.z.z.) X % % + 7 t r r r r r r r r r r r r r r r r r r r r r r r r r r 0 $ + % O g z.z.z.z.z.z.z.z.z.z.z.",
"z.z.z.z.z.z.z.z.z.z.%.$ + + + + 8 t r r r r r r r r r r r r r r r r r r r r r r r t y % + % + $ @.z.z.z.z.z.z.z.z.z.z.z.",
"z.z.z.z.z.z.z.z.z.z.o.$ + + % + + 3 t r r r w r r r r r r r r r r r r r r r r w t 5 % + % % o z z.z.z.z.z.z.z.z.z.z.z.z.",
"z.z.z.z.z.z.z.z.z.z._ X % % + % + + , u r r r r r r w r r r r r r r r r r w t i 7 + + % + - X H z.z.z.z.z.z.z.z.z.z.z.z.",
"z.z.z.z.z.z.z.z.z.z.H . - % % % % % O & 4 i t w r r r r q t r w r r w r t t 5 * + + % + + + . R z.z.z.z.z.z.z.z.z.z.z.z.",
"z.z.z.z.z.z.z.z.z.z.x o - + + + @ + + + @ * 4 u i t t t e r r r t r r w 5 * + + % + + % - - . S z.z.z.z.z.z.z.z.z.z.z.z.",
"z.z.z.z.z.z.z.z.z.*.$ X X $ % $ X X % % % O + - * 3 9 y u w w y 9 8 = & + + + % $ % + o o o . < z.z.z.z.z.z.z.z.z.z.z.z.",
"z.z.z.z.z.z.z.z.z.v   x T | $.X./ M $ o % % % + + + + % - - - % + + + + + % + % + O > l n x a X n z.z.z.z.z.z.z.z.z.z.z.",
"z.z.z.z.z.z.z.z.} s [ z.z.z.z.z.z.z.@.< O % + % + % % O X . . O + % + % % + % O < ! 6.z.z.z.w.X.C I z.z.z.z.z.z.z.z.z.z.",
"z.z.z.z.z.z.z.z.W 1.z.z.z.z.z.z.z.z.z.;.; O % + - O O a B D M a O + % + + % O a 5.z.z.z.z.z.z.z.z.1.=.w.z.z.z.z.z.z.z.z.",
"z.z.z.z.z.z.z.z.z.z.z.z.z.z.z.z.z.z.z.z.) X % % . a { z.z.z.z.z./ : o + % + $ +.z.z.z.z.z.z.z.z.z.z.z.8.z.z.z.z.z.z.z.z.",
"z.z.z.z.z.z.z.z.z.z.z.z.z.z.z.z.z.z.z.z.z.d + O z z.z.z.z.z.z.z.z.;.s O % X m z.z.z.z.z.z.z.z.z.z.z.z.z.z.z.z.z.z.z.z.z.",
"z.z.z.z.z.z.z.z.z.z.z.z.z.z.z.z.z.z.z.z.z.K   g z.z.z.z.z.z.z.z.z.z.>.< O O ] z.z.z.z.z.z.z.z.z.z.z.z.z.z.z.z.z.z.z.z.z.",
"z.z.z.z.z.z.z.z.z.z.z.z.z.z.z.z.z.z.z.z.z._ O &.z.z.z.z.z.z.z.z.z.z.z. .+ : 4.z.z.z.z.z.z.z.z.z.z.z.z.z.z.z.z.z.z.z.z.z.",
"z.z.z.z.z.z.z.z.z.z.z.z.z.z.z.z.z.z.z.z.z.X.m z.z.z.z.z.z.z.z.z.z.z.z.z.V : z.z.z.z.z.z.z.z.z.z.z.z.z.z.z.z.z.z.z.z.z.z.",
"z.z.z.z.z.z.z.z.z.z.z.z.z.z.z.z.z.z.z.z.z.$.` z.z.z.z.z.z.z.z.z.z.z.z.z.:.j r.z.z.z.z.z.z.z.z.z.z.z.z.z.z.z.z.z.z.z.z.z.",
"z.z.z.z.z.z.z.z.z.z.z.z.z.z.z.z.z.z.z.z.z.z.-.z.z.z.z.z.z.z.z.z.z.z.z.z.z.W 1.z.z.z.z.z.z.z.z.z.z.z.z.z.z.z.z.z.z.z.z.z.",
"z.z.z.z.z.z.z.z.z.z.z.z.z.z.z.z.z.z.z.z.z.z.6.z.z.z.z.z.z.z.z.z.z.z.z.z.z.3.>.z.z.z.z.z.z.z.z.z.z.z.z.z.z.z.z.z.z.z.z.z."
};
